# xmcd
#
# Track frame offsets:
#	150
#	20017
#	42612
#	61525
#	76040
#	95132
#	117192
#	133070
#	153737
#	174492
#	187395
#	214112
#	232152
#	251059
#
# Disc length: 3566 seconds
#
# Revision: 1
# Processed by: cddbd v1.5.1PL0 Copyright (c) Steve Scherf et al.
# Submitted via: audiograbber 1.83.01
#
DISCID=cc0dec0e
DTITLE=Vários Artistas - Geração MPB
DYEAR=1900
DGENRE=
TTITLE0=Ed Motta - Colombina
TTITLE1=Luciana Mello - Se
TTITLE2=Cassia Eller - O segundo sol
TTITLE3=Zeca Baleiro - Proibida pra mim
TTITLE4=Wilson Sideral - Bem que quis
TTITLE5=Pedro Mariano - Tem do
TTITLE6=Ivete Sangalo - A lua que te dei
TTITLE7=Max de Castro - Pra voce lembrar
TTITLE8=Paula Lima - Quero ver voce no baile
TTITLE9=Chico Cesar - Sou rebelde
TTITLE10=Jairzinho Oliveira - Vivo Antando
TTITLE11=Simoninha - Isso que da
TTITLE12=Seu Jorge - Te queria
TTITLE13=Lulo - Por um triz
EXTD=
EXTT0=
EXTT1=
EXTT2=
EXTT3=
EXTT4=
EXTT5=
EXTT6=
EXTT7=
EXTT8=
EXTT9=
EXTT10=
EXTT11=
EXTT12=
EXTT13=
PLAYORDER=
